<svg width="65" height="65" viewBox="0 0 65 65" fill="none" xmlns="http://www.w3.org/2000/svg">
<path fill-rule="evenodd" clip-rule="evenodd" d="M1.77114 8.87266C1.16229e-07 12.3487 0 16.8992 0 26V39C0 48.1009 1.16229e-07 52.6514 1.77114 56.1275C3.32909 59.1851 5.81503 61.6709 8.87266 63.229C12.3487 65 16.8992 65 26.0001 65H39C48.1009 65 52.6514 65 56.1275 63.229C59.1851 61.6709 61.671 59.1851 63.229 56.1275C65 52.6514 65 48.1009 65 39V26C65 16.8992 65 12.3487 63.229 8.87266C61.671 5.81502 59.1851 3.32908 56.1275 1.77115C52.6514 0 48.1009 0 39 0H25.9999C16.8992 0 12.3487 0 8.87266 1.77115C5.81503 3.32908 3.32909 5.81502 1.77114 8.87266ZM38.1182 21.1014C32.7142 23.5346 17.1325 30.445 17.1325 30.445C13.4397 32.0023 15.6012 33.4622 15.6012 33.4622C15.6012 33.4622 18.7536 34.6303 21.4557 35.506C24.1578 36.3822 25.5988 35.4089 25.5988 35.4089C25.5988 35.4089 31.9036 30.9317 38.2984 26.1624C42.8018 22.8532 41.7211 25.5786 40.6402 26.7466C38.2984 29.2771 34.4255 33.2676 31.1831 36.4795C29.742 37.8421 30.4625 39.01 31.093 39.594C32.9267 41.2706 37.2452 44.3198 39.2061 45.7043C39.7494 46.0879 40.1117 46.3437 40.1899 46.4071C40.6402 46.7965 43.1621 48.5482 44.6933 48.159C46.2244 47.7698 46.4046 45.531 46.4046 45.531C46.4046 45.531 47.5754 37.55 48.6562 30.2504C48.8565 28.8169 49.0566 27.4137 49.2434 26.1053C49.7286 22.7047 50.1223 19.9442 50.1874 18.9601C50.4577 15.6509 47.2152 17.0135 47.2152 17.0135C47.2152 17.0135 40.1899 20.1281 38.1182 21.1014Z" fill="#31A3DD"/>
</svg>
