<svg width="25" height="27" viewBox="0 0 25 27" fill="none" xmlns="http://www.w3.org/2000/svg">
<path fill-rule="evenodd" clip-rule="evenodd" d="M11.5937 12.0003L9.76912 10.9142C9.60291 10.8149 9.50171 10.6344 9.50171 10.4356V0.631001C9.50171 0.325415 9.74384 0.0787354 10.0437 0.0787354H11.8683C12.1681 0.0787354 12.4102 0.325415 12.4102 0.631001V11.5217C12.4102 11.9488 11.9549 12.2139 11.5937 12.0003Z" fill="#FF8500"/>
<path opacity="0.45" fill-rule="evenodd" clip-rule="evenodd" d="M13.8801 14.1982L15.7046 15.2842C15.8708 15.3836 15.9719 15.564 15.9719 15.7628V25.5711C15.9719 25.8768 15.7299 26.1234 15.43 26.1234H13.6054C13.3056 26.1234 13.0635 25.8768 13.0635 25.5711V14.6804C13.0635 14.2534 13.5188 13.9882 13.8801 14.2018V14.1982Z" fill="#FF8500"/>
<path fill-rule="evenodd" clip-rule="evenodd" d="M13.071 11.522L13.0855 9.36813C13.0855 9.17304 13.1903 8.98895 13.3565 8.89324L21.6988 4.0038C21.9589 3.85285 22.2913 3.94122 22.4395 4.2063L23.3499 5.81893C23.4981 6.08403 23.4113 6.42271 23.1512 6.57371L13.8876 12.0044C13.5263 12.2178 13.0747 11.9491 13.0747 11.522H13.071Z" fill="#FF8500"/>
<path fill-rule="evenodd" clip-rule="evenodd" d="M12.4023 14.6404L12.3878 16.7943C12.3878 16.9894 12.283 17.1735 12.1169 17.2692L3.77452 22.1586C3.51439 22.3096 3.182 22.2212 3.03387 21.9561L2.1234 20.3436C1.97527 20.0784 2.06198 19.7397 2.32212 19.5888L11.5858 14.1582C11.9471 13.9446 12.3986 14.2134 12.3986 14.6404H12.4023Z" fill="#FF8500"/>
<path fill-rule="evenodd" clip-rule="evenodd" d="M11.2322 13.5505L9.38948 14.6071C9.22335 14.7028 9.01742 14.7028 8.85119 14.6034L0.548613 9.64405C0.292095 9.4894 0.205383 9.1507 0.353514 8.8893L1.27482 7.28406C1.42656 7.02266 1.75895 6.93428 2.01548 7.08523L11.2358 12.5932C11.5971 12.8104 11.5935 13.3405 11.2286 13.5505H11.2322Z" fill="#FF8500"/>
<path opacity="0.45" fill-rule="evenodd" clip-rule="evenodd" d="M14.1803 12.6082L16.0229 11.5514C16.1892 11.4557 16.3951 11.4557 16.5612 11.5552L24.8638 16.5145C25.1204 16.6691 25.2071 17.0078 25.0589 17.2693L24.1376 18.8745C23.9859 19.1359 23.6535 19.2243 23.397 19.0733L14.1767 13.5653C13.8154 13.3481 13.819 12.818 14.1839 12.6082H14.1803Z" fill="#FF8500"/>
</svg>
