<svg width="24" height="27" viewBox="0 0 24 27" fill="none" xmlns="http://www.w3.org/2000/svg">
<g clip-path="url(#clip0_49_74)">
<path d="M17.3767 26.6667H7.09945C6.04941 26.6667 5.2931 25.659 5.58641 24.6508L10.9726 6.1356C11.1684 5.46275 11.7849 5 12.4857 5H22.258C23.2915 5 24.0452 5.97813 23.7817 6.97746C21.8754 14.2081 20.8066 18.262 18.9004 25.4926C18.718 26.1845 18.0923 26.6667 17.3767 26.6667Z" fill="#FB5914" fill-opacity="0.33"/>
</g>
<g clip-path="url(#clip1_49_74)">
<path d="M12.3767 21.6667H2.09945C1.04941 21.6667 0.293104 20.659 0.586413 19.6508L5.97264 1.1356C6.16838 0.462749 6.78493 0 7.48568 0H17.258C18.2915 0 19.0452 0.978129 18.7817 1.97746L13.9004 20.4926C13.718 21.1845 13.0923 21.6667 12.3767 21.6667Z" fill="#FF8500"/>
</g>
<defs>
<clipPath id="clip0_49_74">
<rect width="19" height="22" fill="white" transform="translate(5 5)"/>
</clipPath>
<clipPath id="clip1_49_74">
<rect width="19" height="22" fill="white"/>
</clipPath>
</defs>
</svg>
