<svg width="31" height="26" viewBox="0 0 31 26" fill="none" xmlns="http://www.w3.org/2000/svg">
<path d="M1.89575 6.80407L10.2043 12.3432C12.1604 13.6471 13.1384 14.2991 14.1954 14.5525C15.1296 14.7763 16.1035 14.7763 17.0377 14.5525C18.0947 14.2991 19.0728 13.6471 21.0288 12.3432L29.3374 6.80407M6.77426 23.5739H24.4588C26.1665 23.5739 27.0204 23.5739 27.6726 23.2416C28.2462 22.9493 28.7128 22.4828 29.005 21.9091C29.3374 21.2569 29.3374 20.4031 29.3374 18.6954V7.10897C29.3374 5.40134 29.3374 4.54752 29.005 3.89529C28.7128 3.32156 28.2462 2.85512 27.6726 2.5628C27.0204 2.23047 26.1665 2.23047 24.4588 2.23047H6.77426C5.06663 2.23047 4.2128 2.23047 3.56057 2.5628C2.98685 2.85512 2.5204 3.32156 2.22808 3.89529C1.89575 4.54752 1.89575 5.40133 1.89575 7.10897V18.6954C1.89575 20.4031 1.89575 21.2569 2.22808 21.9091C2.5204 22.4828 2.98685 22.9493 3.56057 23.2416C4.2128 23.5739 5.06661 23.5739 6.77426 23.5739Z" stroke="white" stroke-width="3.04907" stroke-linecap="round" stroke-linejoin="round"/>
</svg>
