<svg width="28" height="28" viewBox="0 0 28 28" fill="none" xmlns="http://www.w3.org/2000/svg">
<path d="M10.918 3.7126L11.9074 5.48553C12.8004 7.08549 12.4419 9.18438 11.0356 10.5907C11.0356 10.5907 9.32989 12.2967 12.4226 15.3895C15.5143 18.4813 17.2214 16.7765 17.2214 16.7765C18.6277 15.3701 20.7266 15.0117 22.3266 15.9046L24.0994 16.8941C26.5155 18.2424 26.8008 21.6305 24.6772 23.7542C23.4012 25.0302 21.838 26.0231 20.1099 26.0885C17.2009 26.1989 12.2607 25.4627 7.30503 20.5071C2.34943 15.5514 1.61321 10.6112 1.72349 7.70218C1.789 5.97414 2.7819 4.41093 4.05795 3.13489C6.18154 1.01129 9.56968 1.29663 10.918 3.7126Z" stroke="white" stroke-width="2.2868" stroke-linecap="round"/>
</svg>
